<svg width="193" height="192" viewBox="0 0 193 192" fill="none" xmlns="http://www.w3.org/2000/svg">
<path d="M150.972 84.4249C163.408 86.4749 172.29 93.3795 177.111 106.317C177.441 98.5544 175.534 92.5958 171.141 87.4755C161.076 75.7419 142.145 71.8607 128.328 78.8258C126.412 79.7932 126.031 79.6134 125.416 77.5516C120.055 59.5701 104.445 47.7095 85.9176 47.3577C64.7291 46.9532 46.5442 62.4899 43.7322 83.4087C43.6124 84.3037 43.0683 85.3024 44.4248 85.8672C46.9806 86.9283 49.5028 88.0755 52.069 89.1992C55.7663 67.8446 67.5668 56.1071 85.2231 56.2674C93.4954 56.3436 100.852 59.0894 107.062 64.6259C116.223 72.7929 118.754 83.524 118.42 96.2054C127.753 86.0137 138.524 82.3709 150.972 84.4249Z" fill="#429CD0"/>
<path d="M26.5615 99.0776C35.3203 96.7307 42.8969 99.2426 49.224 105.685C52.1416 108.656 54.9916 109.006 57.4164 106.77C59.5832 104.768 59.2482 102.411 56.3388 99.1996C46.4293 88.2588 30.0777 85.4549 17.0392 92.4596C4.1265 99.3955 -2.57732 114.46 0.924322 128.667C4.49177 143.143 17.375 153.275 32.2403 153.153C33.4246 153.153 34.6206 153.261 35.7914 153.134C44.4346 152.206 51.5628 148.375 57.1787 141.76C58.9501 139.673 59.0044 137.388 57.2157 135.309C55.3112 133.094 53.0339 133.362 50.8713 134.927C49.6583 135.804 48.6319 136.936 47.511 137.941C40.2416 144.464 29.1843 145.528 20.7714 140.518C12.1483 135.381 7.85699 125.17 10.3948 115.482C12.628 106.955 18.0924 101.346 26.5615 99.0776Z" fill="#429CD0"/>
<path d="M138.406 70.092H155.042V53.4559H138.406V70.092Z" fill="#4EC2A4"/>
<path d="M164 77.2703H176.129V65.1415H164V77.2703Z" fill="#4EC2A4"/>
<path d="M186.591 61.7747V67.1841H192.002V61.7747H186.591Z" fill="#4EC2A4"/>
<path d="M172.903 51.5632H180.359V44.108H172.903V51.5632Z" fill="#4EC2A4"/>
<path d="M155.041 47.252H163.415V38.88H155.041V47.252Z" fill="#4EC2A4"/>
<path d="M125.498 50.0613H133.009V42.5501H125.498V50.0613Z" fill="#4EC2A4"/>
<path d="M145.568 146.636L152.225 101.02C152.511 99.0592 151.86 97.0449 150.394 95.7132C149.332 94.7476 147.92 94.1583 146.372 94.1583C143.172 94.1583 140.559 96.672 140.399 99.8316C140.387 100.036 140.376 100.241 140.346 100.444L133.689 146.06C133.404 148.021 134.053 150.034 135.52 151.369C136.582 152.333 137.993 152.922 139.542 152.922C142.743 152.922 145.356 150.408 145.516 147.249C145.526 147.044 145.538 146.839 145.568 146.636Z" fill="#4EC2A4"/>
<path d="M161.306 141.869L166.652 105.212C166.652 101.907 163.975 99.2295 160.672 99.2295C157.369 99.2295 154.689 101.907 154.689 105.212L149.343 141.869C149.343 145.172 152.02 147.85 155.323 147.85C158.626 147.85 161.306 145.172 161.306 141.869Z" fill="#4EC2A4"/>
<path d="M177.685 132.197L180.36 114.882C180.36 111.579 177.682 108.901 174.379 108.901C171.075 108.901 168.397 111.579 168.397 114.882L165.723 132.197C165.723 135.5 168.402 138.177 171.705 138.177C175.008 138.177 177.685 135.5 177.685 132.197Z" fill="#4EC2A4"/>
<path d="M133.043 129.52H21.6434C18.3401 129.52 15.6621 126.843 15.6621 123.539C15.6621 120.235 18.3401 117.558 21.6434 117.558H134.779L133.043 129.52Z" fill="#4EC2A4"/>
</svg>
